<svg xmlns="http://www.w3.org/2000/svg" width="14.768" height="26.128" viewBox="0 0 14.768 26.128"><path d="M23.36,7.112H26.2a.568.568,0,0,0,.568-.568V2.717a.567.567,0,0,0-.525-.566C25.339,2.087,23.574,2,22.3,2c-3.488,0-5.76,2.09-5.76,5.889v3.767H12.568a.568.568,0,0,0-.568.568V16.2a.568.568,0,0,0,.568.568h3.976V27.56a.568.568,0,0,0,.568.568h3.976a.568.568,0,0,0,.568-.568V16.768h4.1a.568.568,0,0,0,.565-.506l.442-3.976a.568.568,0,0,0-.565-.63H21.656V8.816A1.7,1.7,0,0,1,23.36,7.112Z" transform="translate(-12 -2)"/></svg>