<svg xmlns="http://www.w3.org/2000/svg" width="24.992" height="24.992" viewBox="0 0 24.992 24.992"><path d="M10.384,3A7.391,7.391,0,0,0,3,10.384V20.608a7.391,7.391,0,0,0,7.384,7.384H20.608a7.391,7.391,0,0,0,7.384-7.384V10.384A7.391,7.391,0,0,0,20.608,3ZM22.312,7.544A1.136,1.136,0,1,1,21.176,8.68,1.139,1.139,0,0,1,22.312,7.544ZM15.5,9.248A6.248,6.248,0,1,1,9.248,15.5,6.252,6.252,0,0,1,15.5,9.248Zm0,1.136A5.112,5.112,0,1,0,20.608,15.5,5.12,5.12,0,0,0,15.5,10.384Z" transform="translate(-3 -3)"/></svg>