<svg xmlns="http://www.w3.org/2000/svg" width="26.128" height="24.418" viewBox="0 0 26.128 24.418"><path d="M5.408,3.01c-1.971,0-3.4,1.181-3.4,2.806s1.466,2.863,3.4,2.863c1.971,0,3.4-1.2,3.4-2.9C8.72,4.152,7.316,3.01,5.408,3.01ZM2.568,9.82A.57.57,0,0,0,2,10.388V26.86a.57.57,0,0,0,.568.568h5.68a.57.57,0,0,0,.568-.568V10.388a.57.57,0,0,0-.568-.568Zm8.52,0a.57.57,0,0,0-.568.568V26.86a.57.57,0,0,0,.568.568H16.2a.568.568,0,0,0,.568-.568v-8.8a2.549,2.549,0,0,1,2.352-2.545,1.887,1.887,0,0,1,.408,0,2.549,2.549,0,0,1,2.352,2.545v8.8a.568.568,0,0,0,.568.568H27.56a.57.57,0,0,0,.568-.568V17.2c0-3.675-1.971-7.384-6.368-7.384a7.68,7.68,0,0,0-4.424,1.414v-.846a.57.57,0,0,0-.568-.568Z" transform="translate(-2 -3.01)"/></svg>