<svg xmlns="http://www.w3.org/2000/svg" width="509.468" height="93.876" viewBox="0 0 509.468 93.876"><g transform="translate(-382.047 -444.079)"><path d="M421.356,488.6c.757,3.969-1.438,7.133-3.106,10.287-6.318,11.936-16.029,20.737-26.91,28.4-2.972,2.09-6.049,1.275-8.264-.633-2.483-2.128.153-3.95,1.39-5.944a122.583,122.583,0,0,0,15.655-36.124,11.409,11.409,0,0,1,6.9-8.322h.029c-.01,0-.019-.009-.029-.009a12.374,12.374,0,0,1,7.526-.086,11.792,11.792,0,0,1,7.545,6.605C422.66,484.814,423.83,486.942,421.356,488.6Z" transform="translate(0 -1.303)"/><path d="M465.247,506.171c-1.237,1.342-2.569,2.368-1.083,4.679.892,1.371,1.074,3.825-1.783,4.343-1.706,2.109-3.451,1.543-5.215.067-1.8-.594-1.313-2.876-2.751-3.739-2.148-.076-4.285-.144-6.433-.22l-2.9.057-7.44.144-3.854,1.84c-1.745,2.713-4,3.586-6.941,1.87-2.962-1.908-4.937-3.969-.987-6.874,1.256-1.5,2.09-2.8.2-4.688a4.231,4.231,0,0,1-.23-5.906c.594-1.716,1.716-1.476,2.943-.786,1.467-1.707,2.694-.92,3.864.374,1.754.949,1.342,2.54,1.17,4.046l.776,1.208q10.454-.158,20.928-.307c2.665-5.177,6.107-6.04,9.712-2.435C467.769,501.934,467.318,504.052,465.247,506.171Z" transform="translate(-1.718 -2.144)"/><path d="M533.717,507.9c.153.757-.345.959-.93,1.083-4.63,1.735-9.414.595-14.122.623-3.125.029-4.5.633-4.5,4.2-.009,8.676-.211,8.676,8.331,10.575,1.083.24,2.176.518,3.279.662,1.879.239,2.33,1.562,2.243,3.077-.077,1.448-.364,2.886-2.339,3.01-2.205.153-4.343,1.151-6.625.642-2.214-.01-4.429-.029-6.653-.038a33.756,33.756,0,0,1-13.882-3.346c-4.774-2.33-7.161-6.471-7.257-11.849a12.723,12.723,0,0,1-.057-5.733c-.316-.594-.633-1.179-.949-1.773l-.949-.259-6.654-.086c-2.013-.316-4.621,1.38-5.838-1.7-3.413-1.563-2.56-3.835-.987-6.232.22-.192.451-.383.681-.575,1.831-1.831,4.027-1.045,6.136-.824,2.55-.039,5.1-.086,7.66-.125,1.908-6.174,1.572-6.634-4.774-6.826a22.564,22.564,0,0,1-2.761-.422c-1.122-.153-2.521.307-3-1.323l-.019.029c-1.62-2.042-1.9-4.094-.086-6.183l.738-.71c2.349-2,5.1-.949,7.689-.939,4.889.009,9.778.172,14.668.278a145.809,145.809,0,0,1,21.36.643c1.917.067,4.065-1,5.58,1.112,3.451,2.262,3.241,4.544.038,6.854l-.029-.086c-2.263,2.761-5.062,1.419-7.737,1.007-1.86.019-3.71.029-5.56.048-.613.3-1.217.585-1.821.882q-.158,2.833-.316,5.676c.326.316.652.633.978.959,2.56.019,5.11.029,7.66.048a29.721,29.721,0,0,1,8.6.077C535.126,502.022,537.139,504.16,533.717,507.9Z" transform="translate(-3.818 -1.59)"/><path d="M572.676,505.8a7.592,7.592,0,0,1,.144,5.637c-2.9,9.922-9.846,16.509-18.148,21.964-2.023.623-4.027,1.1-5.666-.853-1.754-.69-1.62-2.147-1.332-3.557,1.006-4.937,2.071-9.855,3.116-14.783.048-.6.105-1.2.153-1.793-.259-5.11.2-9.884,5.723-12.3,2.368-.288,4.909-2.349,6.922.719C568.419,499.189,570.192,503.149,572.676,505.8Z" transform="translate(-6.835 -2.276)"/><path d="M599.385,494.5c-3.615,9.175-9.069,16.5-19.222,19.078-1.754.364-3.633,1.515-4.966-.8-1.63-1.515-.22-2.933.23-4.3a33.913,33.913,0,0,0,1.86-14.764c-1.563-.115-3.135-.24-4.7-.365-5.484.106-10.968.47-16.4-.575q-3.81-.115-7.621-.211c-2.215-.039-4.42-.067-6.634-.105a1.9,1.9,0,0,1-2.08-1.448c-1.572-1.774-2.1-3.528.048-5.263a3.877,3.877,0,0,1,4.774-2.684c2.9.489,5.925-.594,8.753.7,2.541-.144,5.091-.451,7.612.2,2.56.019,5.119.029,7.679.048,2.867.01,5.733.029,8.59.039,4.822-.039,9.682-.834,14.39.872.326-.019.642-.048.968-.067,2.8.383,4.458,2.253,5.867,4.468C600.708,490.733,600.564,492.536,599.385,494.5Z" transform="translate(-6.462 -1.605)"/><path d="M624.061,501.644c-4.928-4.1-9.712-8.542-10.92-15.387-.086-.556-.182-1.112-.278-1.668a10.2,10.2,0,0,1-.029-8.081c.086-1.074-.192-2.263,1.006-2.943.3-.364.6-.719.9-1.083.278-1.112,1.457-.94,2.138-1.486,6.825-1.534,13.613,2.052,18.33,9.8a14.317,14.317,0,0,1,2.55,6.509c.1.537.192,1.074.3,1.62,1.9,3.768.566,7.43-.8,10.852C635.489,504.194,628.48,505.326,624.061,501.644Z" transform="translate(-9.5 -1.097)"/><path d="M640.848,446.879a.691.691,0,0,1,.46-1.055c2.7-2.138,5.388-2.541,8.043.086.489.594.968,1.179,1.457,1.764,4.122,1.984,4.391,5.982,5.12,9.75.019.652.038,1.3.067,1.956a11.237,11.237,0,0,1,.029,5.695c-.048.652-.1,1.313-.144,1.975-.173,3.279-.71,6.414-3.442,8.676-.6.968-1.208,1.927-1.812,2.9a2.909,2.909,0,0,1-2.33,1.591,6.13,6.13,0,0,1-5.637.134C632.076,473.7,631.021,454.328,640.848,446.879Z" transform="translate(-10.411 0)"/><path d="M680.73,518.888c2.157,4.7,2.838,9.079-.776,13.7-2.819,3.595-5.934,5.186-10.239,4.074a60.7,60.7,0,0,1-6.2-2.444c-3.7-1.4-7.1-2.224-11.457-1.246-5.982,1.342-12.166,3.729-18.637,1.438-5.867-2.071-7.334-4.582-5.627-10.814.105-.3.211-.594.317-.9,1.141-7.228,5.752-12.5,10.181-17.832,1.822-2.186,4.237-3.863,6.069-6.04,5.138-6.078,15.4-8.772,22.395-.719,4.238,4.861,9.53,8.763,11.831,15.109a12.267,12.267,0,0,1,2.147,5.675Z" transform="translate(-10.124 -2.025)"/><path d="M663.026,471.926a12.41,12.41,0,0,1,.019-5.724c.613-8.081,4.276-14.237,11.466-18.177a5.352,5.352,0,0,1,5.7.048c2.819,1.754,4.966,3.931,4.794,7.583a7.927,7.927,0,0,1,.192,5.819c-.086.94-.173,1.87-.268,2.809a22.9,22.9,0,0,1-5.474,13.029c-3,3.48-6.692,5.359-11.054,3.8C664.426,479.681,663.074,476.019,663.026,471.926Z" transform="translate(-11.594 -0.13)"/><path d="M700.893,482.8a7.825,7.825,0,0,1,.125,5.781c-.038.307-.077.613-.115.93-.537,7.229-8.753,15.512-16.365,17.151-3.768.805-6.931-1.39-8.322-5.695-.029-1.582-.057-3.154-.086-4.736,1.946-7.957,6.068-14.208,13.977-17.314C695.505,476.784,697.336,477.532,700.893,482.8Z" transform="translate(-12.149 -1.393)"/><path d="M759.048,518.8c-2.262,3.988-6.653,6.27-9.961,3.729-7.065-5.417-11.9-4.18-17.7,2.176-4.074,4.467-9.779,7.621-15.54,10.191-2.665,1.189-4.573.633-6.2-1.4-1.706-2.128-.269-3.6,1.113-5.35a163.4,163.4,0,0,0,11.4-16.739c1.592-2.627.738-3.451-1.563-4.516-1.984-.93-4.266-1.39-5.848-3.106-2.147-1.927-2.387-3.336,1.007-3.777,1.975-.029,3.95-1.687,5.934-.038,1.189.106,2.378.2,3.557.3a4.072,4.072,0,0,0,4.861-2.723c1.745-4.046,3.854-7.928,5.7-11.926,2.656-5.743,11.667-7.6,16.307-3.308,5.6,5.177,6.107,8.3,2.483,15.349-.288.566-.585,1.131-.892,1.687-1.208,2.224-3.461,4.506-3.355,6.672.105,2.31,3.806,2.493,5.58,3.9C758.549,512,761.368,514.693,759.048,518.8Z" transform="translate(-13.501 -1.482)"/><path d="M826.72,507.659c-5.867,7.458-11.437,15.023-19.068,20.8a43.048,43.048,0,0,1-16.643,8c-2.1.6-4.295,1.917-5.973-.767-1.678-1.8-.671-3.49.805-4.334,2.742-1.582,3.183-4.88,5.723-6.692,1.458-1.026,1.112-3.384-.527-4.918-1.956-1.831-3.864-3.71-5.791-5.57-1.582-1.525-1.9-3.049.01-4.573a5.749,5.749,0,0,1,.144-.815c-.844-.326-.987-1.035-1.026-1.821-3.01,1.927-6.069,3.777-9,5.81-1.668,1.15-3.624,2.512-5.062.7-1.371-1.745-2.109-4.2-.3-6.529,5.091-6.529,10.114-13.115,15.157-19.672.662-.546,1.333-1.093,2-1.639,2.425-5.829,8.887-7.018,13.968-4.113,4.688,2.675,4.841,6.912,6.337,10.852l4.668.144,7.632.029C829.4,494.16,831.533,501.542,826.72,507.659Z" transform="translate(-15.983 -1.484)"/><path d="M854.007,519.605c-.6,2.454-1.2,4.9-1.8,7.353-1.083,4.372-3.835,6.327-8.36,6.088-3.547-.192-10.45-5.944-10.939-9.433-.172-1.256-.24-2.627.853-3.557,4.765-4.094,9.942-7.487,16.1-9.069,2.272-.585,2.713,2.09,4.257,2.876C855.521,515.8,854.572,517.7,854.007,519.605Z" transform="translate(-18.621 -2.761)"/><path d="M880.3,505.319l-.681.825c-.125.911-.249,1.821-.365,2.732-.038,2.56-.067,5.129-.1,7.689-.01,2.224-.01,4.448-.019,6.673-.086,2.924.585,5.924-.767,8.733-.69,5.081-5.138,5.349-8.686,6.778l-.029.805a.966.966,0,0,1-.316-.767c0-.048.01-.086.01-.125a.8.8,0,0,1,.067-.269c.019-.019.029-.038.048-.038,2.032-2.79,6.883-2.09,7.852-6.193a1.3,1.3,0,0,0,.048-.182c.077-.278.154-.556.249-.824,0-.019.01-.029.019-.048.038-.144.1-.288.144-.431.067-.4.105-.8.144-1.2a2.359,2.359,0,0,0,.019-.268c.106-1.371.067-2.742.038-4.113-.029-.777-.048-1.544-.038-2.31q0-2.962-.019-5.925v-.317c.029-2.445-.01-4.88.048-7.324a7.813,7.813,0,0,1,.556-2.962c.048-.105.1-.211.144-.307a4.111,4.111,0,0,1,1.563-1.524,2.379,2.379,0,0,1,.268-.134c.106-.029.2-.048.307-.067s.211-.048.307-.067c4.487-.93,9.049-.173,13.546-.45a3.677,3.677,0,0,0,2.1-.5,2.621,2.621,0,0,0,.767-.729,2.885,2.885,0,0,0-.278-3.49c-.278-.3-.546-.614-.844-.911l-.029-.029a4.019,4.019,0,0,0-1.064-.681h-.01c-.24-.115-.489-.211-.738-.307l-.4-.144q-.647-.072-1.294-.115h-.057c-1.256-.086-2.521-.086-3.787-.067a48.464,48.464,0,0,1-6.672-.182c-.134-.01-.278-.029-.412-.048a4.121,4.121,0,0,1-.757-.23c-1.63-.71-1.965-2.426-2.512-3.979-1.237-3.49-3.1-6.442-6.711-7.88a.35.35,0,0,0-.105-.048c-.23-.029-.46-.048-.681-.067h-.01a22.7,22.7,0,0,0-3.786-.019c-.192,0-.384.019-.585.038-.048,0-.1.01-.144.01-3.269.9-5.445,2.828-6.2,6.078-.057.221-.1.441-.134.671a8.416,8.416,0,0,1-.489,2.7.461.461,0,0,1-.038.105,4.8,4.8,0,0,1-2.579,2.253,2.9,2.9,0,0,1-.307.125,7.066,7.066,0,0,1-.757.163,19.59,19.59,0,0,1-6.73.029l-.335-.086-.105-.029c-.22-.057-.441-.105-.661-.163-.125-.029-.249-.067-.374-.086a10.136,10.136,0,0,0-3.576-.345s0,.01-.01,0a5.9,5.9,0,0,0-1.994.642c-.163.086-.317.182-.48.288-.316.249-.633.5-.93.757a3.215,3.215,0,0,0-.594,3.212c.642,1.716,1.975,2.176,3.567,2.166h.105a1.549,1.549,0,0,0,.211-.009,40.19,40.19,0,0,1,6.97.307,2.006,2.006,0,0,1,.23.058h.048v.009c.115.019.23.048.345.077q.345.057.661.115c.576.1,1.1.182,1.592.278.556.106,1.055.2,1.505.307,2.588.613,3.432,1.409,3.729,3.8.086.681.124,1.5.153,2.464.01.68.019,1.438.029,2.291v.8c-.01.355-.01.709-.01,1.064q-.014,2.205,0,4.4v1.62c-.038,2.243,0,4.5-.086,6.73a7.1,7.1,0,0,1-.192,1.428,4.56,4.56,0,0,1-.211.7c-.039.057-.067.115-.106.172-3.595,5.417-3.6,5.417,1.39,8.916,0,.009.01.019.01.029a.83.83,0,0,1,.067.24,1.086,1.086,0,0,1-.288.949c0-.307,0-.614-.01-.92-2.119-1.611-6.289-.134-6.768-3.931-.4-3.154,3.9-3.173,4.764-5.723.048-.317.087-.633.135-.959.028-2.541.048-5.081.076-7.622,0-2.56.01-5.11.019-7.669-.25-7.161-.25-7.161-6.893-8.475q-4.285-.115-8.57-.22c-2.253.374-3.192-1.007-3.8-2.838-.422-1.63-.892-3.26.882-4.448a1,1,0,0,1,.844-.383c2.339-2.962,5.244-1.582,8.033-1.055q4.185.014,8.37.01c.6-.6,1.208-1.208,1.812-1.821.029-.94.058-1.879.077-2.828.623-3.988,2.751-6.605,6.807-7.458a13.252,13.252,0,0,1,6.653,0,10.867,10.867,0,0,1,7.5,9c.192,1.246-.067,2.579,1.189,3.432,4.88.048,9.769-.24,14.611.633.824-.019,1.735-.153,1.745,1.1l.24.24-.115.316c2.886,1.313,2.032,3.269.92,5.273-.355,1.007-.9,1.783-2.1,1.783C891.119,506.019,885.693,504.792,880.3,505.319Z" transform="translate(-18.862 -1.599)"/><path d="M897.97,489.57c-1.141-1.917-.7-3.835.02-5.743,1.956-4.41,3.556-5.253,5.781-3.058.345.3.69.6,1.035.9a4.451,4.451,0,0,1-.057,5.148.737.737,0,0,1-.192.786C901.853,492.523,900.836,492.83,897.97,489.57Z" transform="translate(-21.284 -1.468)"/><path d="M905.1,523.473a3.711,3.711,0,0,1-.978,4.813c-2.943,4.323-7.113,6.26-12.185,5.5-5.186-.786-5.992-5.215-6.873-9.386-.087-.556-.163-1.112-.24-1.659a6.359,6.359,0,0,1-.758-4.075c-.307-1.812-1.054-3.7.805-5.186a1.973,1.973,0,0,1,2-1.486c2.282-.556,4.679-1.409,5.675,1.9A41.842,41.842,0,0,1,905.1,523.473Z" transform="translate(-20.721 -2.784)"/><path d="M912.6,495.76c-1.62,2.569-1.908,6.845-6.759,5.292-2.3-1.812-1.553-4.007-.8-6.212.882-3.6,2.761-5.474,6.653-3.768C913.982,492.252,912.813,494.1,912.6,495.76Z" transform="translate(-21.574 -1.915)"/><path d="M870.615,541.1l-.029.805H861c0-.307,0-.614-.009-.921.077-.1.153-.182.23-.268a3.48,3.48,0,0,1,1.831-.872,17.5,17.5,0,0,1,6.356.24,2.532,2.532,0,0,1,.939.662A2.6,2.6,0,0,1,870.615,541.1Z" transform="translate(-19.785 -3.948)"/><path d="M679.954,532.588c-2.819,3.595-5.934,5.186-10.239,4.074a60.7,60.7,0,0,1-6.2-2.444c-3.7-1.4-7.1-2.224-11.457-1.246-5.982,1.342-12.166,3.729-18.637,1.438-5.867-2.071-7.334-4.582-5.627-10.814.412-.4.863-.067,1.294-.057a2.377,2.377,0,0,0-.978-.844c1.141-7.229,5.752-12.5,10.181-17.832,1.822-2.186,4.237-3.863,6.069-6.04,5.138-6.078,15.4-8.772,22.395-.719,4.238,4.861,9.529,8.763,11.831,15.109a10.618,10.618,0,0,0,2.147,5.675C682.887,523.586,683.568,527.967,679.954,532.588Z" transform="translate(-10.124 -2.025)"/><path d="M826.72,507.658c-5.867,7.459-11.437,15.023-19.068,20.8a43.044,43.044,0,0,1-16.643,8c-1.927-.738-4.132.632-5.973-.767-1.678-1.8-.671-3.49.805-4.334,2.742-1.582,3.183-4.88,5.723-6.692,1.458-1.026,1.112-3.384-.527-4.918-1.956-1.831-3.864-3.71-5.791-5.57a5.592,5.592,0,0,1,.01-4.573,5.7,5.7,0,0,1,.144-.815,2.794,2.794,0,0,1,1.5-2.2,1.126,1.126,0,0,1,.211-.115,6.507,6.507,0,0,1,.585-.288c1.457-.364,2.828-.479,3.585,1.217a1.934,1.934,0,0,1-.23.393.936.936,0,0,1-1.409.211.561.561,0,0,1-.105-.058c.019.019.038.048.058.067h.009c.556.652,1.17.211,1.735,0,.038-.01.076-.029.115-.038a2.6,2.6,0,0,0,.249-.1,6.592,6.592,0,0,1,1.419-.585,8.046,8.046,0,0,1,4.534,1.237c1.946,1.179,3.317.681,4.276-1.218.536-1.083,1.86-2.09,1.035-3.4-.662-1.064-2.032-.576-3.106-.69A20.522,20.522,0,0,0,787.539,506a2.078,2.078,0,0,1-.892.192h-.01a1.324,1.324,0,0,1-.268-.019h-.038a1.564,1.564,0,0,0-.384-.24c-.5-.259-.93-.163-1.208.614a1.02,1.02,0,0,1-.1.115c-.086.105-.173.211-.268.307-3.01,1.927-6.069,3.777-9,5.81-1.668,1.15-3.624,2.512-5.062.7-1.371-1.745-2.109-4.2-.3-6.529,5.091-6.529,10.114-13.115,15.157-19.672,1.505.489,1.419-.987,2-1.639,2.425-5.829,8.887-7.018,13.968-4.113,4.688,2.675,4.841,6.912,6.337,10.852a1.028,1.028,0,0,0,.949,1c.029.009.058.009.087.019,1.15-.01,2.31.01,3.451.029a.231.231,0,0,0,.115,0c1.86.039,3.7.067,5.541-.029.48-.019.959-.058,1.438-.1q.345-.383.719-.748C829.4,494.16,831.533,501.542,826.72,507.658Z" transform="translate(-15.983 -1.484)"/><path d="M531.576,500.372a6.877,6.877,0,0,1-1.917.748c-.959.019-1.927.048-2.886.067-1.275.038-2.56.057-3.835.067h-.383c-1.764,0-3.518-.038-5.282-.154l-.834-.058a3.851,3.851,0,0,1-1.122-.8c-.326-.326-.652-.642-.978-.959-.623-1.937-1.131-3.854.316-5.675.6-.3,1.208-.585,1.822-.882a1.275,1.275,0,0,1,.6-.949c.374-.048.758-.086,1.131-.115a13.153,13.153,0,0,1,2.943.009,3.45,3.45,0,0,1,.537.077,1.874,1.874,0,0,1,.317.058,8.587,8.587,0,0,1,1.984.652c1.985.172,3.969.326,5.781-.786l.029.086a6.525,6.525,0,0,0,.249-5.752c-.125-.077-.249-.154-.384-.221a.3.3,0,0,0-.1-.048,6.284,6.284,0,0,0-1.467-.575,7.935,7.935,0,0,0-1.486-.268,19.742,19.742,0,0,0-3.192.01,21.224,21.224,0,0,1-3.576.009,5.739,5.739,0,0,1-.815-.115c-.268-.077-.546-.144-.815-.2-.125-.029-.24-.048-.364-.067-.048-.01-.106-.019-.163-.029.057.009.115.009.163.019l.364.057c.249.039.489.1.738.154.757.029,1.544.163,2.3.182a3.981,3.981,0,0,0,.585,0,.018.018,0,0,1,.014-.007.019.019,0,0,1,.015.007,3.26,3.26,0,0,0,2.31-1.122,145.861,145.861,0,0,0-21.36-.642,4.246,4.246,0,0,1-1.38.69c-.432.029-.853.048-1.285.058-2.071.077-4.151.019-6.231.01h-2.052c-1.064.009-2.128.048-3.183.134a19.83,19.83,0,0,1-3.1-.125.045.045,0,0,0-.048,0,10.932,10.932,0,0,0-2.5,0,4.939,4.939,0,0,0-1.563.46,1.791,1.791,0,0,0-.326.173,2.223,2.223,0,0,0-.345.211,3.906,3.906,0,0,0-.345.249,6.328,6.328,0,0,0-.077,5.4c.01.01.019.019.029.019h.01a1.84,1.84,0,0,0,.288.211,5.055,5.055,0,0,0,3.327.575,2.6,2.6,0,0,0-1.208.786,22.639,22.639,0,0,0,2.761.422c6.346.192,6.682.652,4.774,6.826a3.585,3.585,0,0,1-1.256.844c-.413.067-.815.124-1.227.153a49.734,49.734,0,0,1-5.206-.038.12.12,0,0,0-.057-.01c-.211,0-.422-.01-.633-.01-.259,0-.518.01-.776.01a13.584,13.584,0,0,0-3.03.383,7.441,7.441,0,0,0-.968.3,1.1,1.1,0,0,0-.23.086c-.038.009-.067.029-.105.038a3.959,3.959,0,0,0-.479.844,5.259,5.259,0,0,0-.364,2.3c.01.489.067.978.125,1.467a4.906,4.906,0,0,0,.757,1.39c0,.01,0,.01.01.019-.01-.01-.029-.01-.038-.019,1.678,1.093,3.566.892,5.426.911.134.019.268.038.412.048a3.894,3.894,0,0,0,.479.029,18.406,18.406,0,0,0,1.917-.077c.019,0,.029-.009.038,0,.259-.019.518-.048.777-.057.172-.01.345-.019.518-.019a5.177,5.177,0,0,1,3.864,1.208c.316.594.633,1.179.949,1.773,2.023,1.889,1.208,3.806.058,5.733.1,5.378,2.483,9.52,7.257,11.849a33.759,33.759,0,0,0,13.882,3.346,9,9,0,0,1,1.63-.681c.5-.067,1-.125,1.5-.154a.043.043,0,0,0,.048,0c.364-.01.738-.01,1.1.01a9.311,9.311,0,0,1,1.429.192,4.706,4.706,0,0,1,.949.671c2.282.508,4.419-.489,6.625-.642,1.975-.125,2.263-1.563,2.339-3.01.086-1.515-.364-2.838-2.243-3.077-1.1-.144-2.2-.422-3.279-.661-8.542-1.9-8.34-1.9-8.331-10.574,0-3.566,1.371-4.17,4.5-4.2,4.707-.029,9.491,1.112,14.121-.623a10.786,10.786,0,0,0-2.588-.566,15.3,15.3,0,0,0,3.518-.518C537.2,504.178,535.191,502.04,531.576,500.372ZM487.7,491.2a10.5,10.5,0,0,1-2.6-.1A6.042,6.042,0,0,1,487.7,491.2Zm29.738-6.72c-1.169,0-2.349-.048-3.365-.048A22.125,22.125,0,0,1,517.436,484.477Zm-1.352,23.517.317.115c1.707.566,3.5.22,5.263.24.115,0,.23,0,.336.01a4.713,4.713,0,0,1,.527.029,42.627,42.627,0,0,1,4.429.01,34.888,34.888,0,0,1-4.477.029c-.163-.019-.316-.029-.479-.038-.115,0-.221-.01-.336-.01-1.764-.039-3.576.364-5.263-.259C516.295,508.08,516.189,508.042,516.084,507.994Z" transform="translate(-3.882 -1.609)"/><path d="M759.048,518.8c-2.262,3.988-6.653,6.27-9.961,3.729-7.065-5.417-11.9-4.18-17.7,2.176-4.074,4.467-9.779,7.621-15.54,10.191-2.665,1.189-4.573.633-6.2-1.4-1.706-2.128-.269-3.595,1.113-5.349a163.367,163.367,0,0,0,11.4-16.739c1.592-2.627.738-3.451-1.563-4.515-1.984-.93-4.266-1.39-5.848-3.106-.987-1.611-.508-2.838,1.007-3.777,1.975-.029,3.95-1.687,5.934-.038a1.567,1.567,0,0,0,.048.892,2.751,2.751,0,0,0,1.956.077,6.966,6.966,0,0,0,1.553-.671,4.071,4.071,0,0,0,4.861-2.722c1.745-4.046,3.854-7.928,5.7-11.926,2.656-5.743,11.667-7.6,16.307-3.307,5.6,5.177,6.107,8.3,2.483,15.349-.288.566-.585,1.131-.892,1.687-1.208,2.224-3.461,4.506-3.355,6.673.106,2.31,3.806,2.492,5.58,3.9C758.549,512,761.368,514.693,759.048,518.8Z" transform="translate(-13.501 -1.482)"/><path d="M897.693,497.955a14.582,14.582,0,0,0-2.339-.566h-.029c-.384-.077-.767-.125-1.15-.163a39.224,39.224,0,0,0-4.63-.144h-1.189a32.736,32.736,0,0,1-5.484-.259,3.031,3.031,0,0,1-.5-.249,5.93,5.93,0,0,1-1.16-.911c-1.256-.853-1-2.186-1.188-3.432a10.869,10.869,0,0,0-7.5-9,6.985,6.985,0,0,1-.863.614c-.029.019-.067.038-.1.057a15.246,15.246,0,0,1-4.669-.067h-.009a4.179,4.179,0,0,1-1.016-.6c-4.055.854-6.184,3.471-6.807,7.459,1.352.987,1.333,1.927-.076,2.828-.6.614-1.208,1.218-1.812,1.822-.23.3-.46.6-.69.911-.767.086-1.534.144-2.3.182a43.013,43.013,0,0,1-4.717-.029c-.153-.01-.316-.019-.479-.038-.249-.01-.5-.038-.757-.067a3.618,3.618,0,0,1-.441-.038c-1.141-.115-2.272-.278-3.413-.489,0,0,0,.01-.01,0-.249-.038-.489-.086-.738-.134a4.941,4.941,0,0,0-2.857.748,1,1,0,0,0-.844.384c-1.045,1.333.182,3.116-.882,4.448.6,1.831,1.543,3.212,3.8,2.838.25-.259.509-.508.757-.757.278-.048.556-.077.834-.105,2.243-.221,4.506.057,6.787-.058a2.2,2.2,0,0,0,.249-.009,14.2,14.2,0,0,0,1.553-.173.473.473,0,0,1-.144.23.849.849,0,0,1-.374.211c-.057.019-.105.029-.163.048a1.155,1.155,0,0,0-.623.326c-.01.019-.029.048-.038.067-.086.153-.173.287-.269.441,6.643,1.313,6.643,1.313,6.893,8.475a4.539,4.539,0,0,1,.671,1.112c.077.5.115,1,.144,1.5v.086c.029.546.029,1.093.029,1.649-.01,1.036-.038,2.08-.01,3.116v.221a8.711,8.711,0,0,0-.1,1.736v.019c.029.757.115,1.515.173,2.272.009.106.009.2.009.3A5.756,5.756,0,0,1,858.08,529c-.863,2.55-5.168,2.569-4.765,5.723.479,3.8,4.65,2.32,6.768,3.93l.3-.029,1.687-.144a12.683,12.683,0,0,1,6.586,0l.719.2.335.086c3.547-1.429,8-1.7,8.686-6.778,1.352-2.809.681-5.81.767-8.734-.882-1.889-.029-3.93-.556-5.848,0-.124.01-.249,0-.374a1.388,1.388,0,0,0-.009-.2,2.289,2.289,0,0,0,0-.259c-.038-1.035-.182-2.09-.307-3.135-.287-2.493-.451-4.976,1.351-7.277l.681-.825a1.864,1.864,0,0,1,1-1.006c.009,0,.009-.01.019-.01.3-.048.594-.086.882-.115a35.867,35.867,0,0,1,4.765-.144c1.956.038,3.911.144,5.858.086a20.662,20.662,0,0,0,5.771-.92C899.726,501.225,900.579,499.269,897.693,497.955Zm-20.267,32.433a3.248,3.248,0,0,0,.393,1.055,1.482,1.482,0,0,1-.182-.268c-.594-1.112.029-2.608-.6-3.72.575.91.211,1.955.393,2.933Z" transform="translate(-18.879 -1.617)"/><path d="M421.356,488.624c.757,3.969-1.438,7.133-3.106,10.287-6.318,11.936-16.029,20.736-26.91,28.4-2.972,2.09-6.049,1.275-8.264-.633-2.483-2.128.153-3.95,1.39-5.944a122.579,122.579,0,0,0,15.655-36.124,11.409,11.409,0,0,1,6.9-8.321h.029c2.5.364,5,.748,7.5-.1a11.792,11.792,0,0,1,7.545,6.605C421.557,484.7,422.506,486.793,421.356,488.624Z" transform="translate(0 -1.326)"/><path d="M599.43,494.5c-3.614,9.175-9.069,16.5-19.222,19.078-1.572-.8-3.422.192-4.966-.8-1.63-1.515-.22-2.934.23-4.3a33.917,33.917,0,0,0,1.86-14.764c-1.486-1.208-3.1-.671-4.7-.364-5.484.105-10.967.47-16.4-.575.1-.154.2-.317.3-.47.019-.029.029-.048.048-.077a2.214,2.214,0,0,1,.278-.173c1.1-.6,2.33-.335,3.432-.431a1.134,1.134,0,0,0,.182-.009c-4.793,0-9.5-.039-14.217.009-.364,0-.738,0-1.1.01a9.881,9.881,0,0,1-1.074-.038,4.26,4.26,0,0,1-4.094-2.876,3.665,3.665,0,0,1-.182-.575l-.029-.086a2.318,2.318,0,0,1,.173-2.31,3.877,3.877,0,0,1,4.774-2.685c2.9.489,5.924-.594,8.753.7-.086.134-.172.278-.258.422-.029.038-.058.086-.086.134a1.885,1.885,0,0,1-.642.364,8.344,8.344,0,0,1-2.013.2,2.453,2.453,0,0,0-.738.182,32.112,32.112,0,0,1,3.585-.163c.46-.01.92,0,1.381.009,1.352.01,2.694.038,4.036,0,.23,0,.46-.009.7-.009.594,0,1.189-.01,1.783-.01h.163c2.358,0,4.717.029,7.085.038h.24c1.687,0,3.384-.009,5.081-.067.729-.009,1.467-.038,2.2-.077a4.221,4.221,0,0,0,1.371-.738c4.822-.038,9.683-.834,14.39.872.489,1.381-.566,1.256-1.352,1.39-.489.125-.93-.652-1.4-.086a4.155,4.155,0,0,0,2.847-.268s.01.009.01,0a2.487,2.487,0,0,0,.863-1.1c2.8.383,4.458,2.253,5.867,4.467a13.608,13.608,0,0,1,.854,5.177Z" transform="translate(-6.506 -1.605)"/><path d="M637.262,499.775c-1.773,4.419-8.781,5.551-13.2,1.869-4.928-4.1-9.712-8.542-10.92-15.387a2.961,2.961,0,0,0,.3-1.783c-.039-.326.153-.595.134-.9-.384.24-.288.805-.71,1.016a10.207,10.207,0,0,1-.029-8.081,1.944,1.944,0,0,1,.681,1.38c.134-.92-.412-2.675.326-4.324.3-.364.6-.719.9-1.083,1.371.451,2.339.326,2.138-1.486,6.826-1.534,13.613,2.052,18.33,9.8a14.323,14.323,0,0,1,2.55,6.509,6.231,6.231,0,0,0-.633.863c-.124.46-.259.92.182,1.285a1.405,1.405,0,0,1,.748-.527C639.956,492.69,638.624,496.352,637.262,499.775Z" transform="translate(-9.5 -1.097)"/><path d="M655.88,467.12c-.172,3.279-.709,6.414-3.442,8.676a4.067,4.067,0,0,0-1.927,1.275c-.259.383-1.189.844-.959,1.208.1.163.412.3,1.074.412a2.908,2.908,0,0,1-2.329,1.591c-1.889-.412-3.749.317-5.637.134-10.584-6.644-11.639-26.019-1.812-33.468a7.994,7.994,0,0,1,1.486-.748,6.161,6.161,0,0,1,.94-.287,7.485,7.485,0,0,1,3.231.038,11.182,11.182,0,0,1,1.3.383,21.716,21.716,0,0,1,3,1.409c4.122,1.984,4.391,5.982,5.12,9.75a12.416,12.416,0,0,0-.048,9.625Z" transform="translate(-10.411 -0.069)"/><path d="M684.179,461.434a2.791,2.791,0,0,0,.767,2.886,22.9,22.9,0,0,1-5.474,13.029c-3,3.48-6.691,5.359-11.054,3.8-3.979-1.428-5.33-5.091-5.378-9.184a7.958,7.958,0,0,0,.019-5.723c.613-8.082,4.276-14.237,11.466-18.177,1.9.105,3.806.019,5.7.048,2.818,1.754,4.966,3.931,4.793,7.583-.623,1.208.336,2.521-.211,3.739-.134.441-.307.892-.451,1.333C684.294,460.983,684.227,461.213,684.179,461.434Z" transform="translate(-11.608 -0.164)"/><path d="M572.819,511.482c-2.905,9.923-9.846,16.509-18.148,21.964a4.545,4.545,0,0,0-.978-.671,7.2,7.2,0,0,0-.911-.144,6.66,6.66,0,0,0-1.572.01,6.466,6.466,0,0,0-1.112.2.942.942,0,0,1-1.093-.249c-1.755-.69-1.62-2.147-1.332-3.557,1.006-4.937,2.071-9.855,3.116-14.783,1.524-.47.738-1.141.153-1.793-.259-5.11.2-9.884,5.723-12.3,2.234.93,4.755-.882,6.922.719,4.832-1.649,6.605,2.311,9.089,4.966A10.061,10.061,0,0,0,572.819,511.482Z" transform="translate(-6.835 -2.317)"/><path d="M700.9,489.506c-.537,7.229-8.753,15.511-16.365,17.151-3.767.805-6.931-1.39-8.321-5.695a4.209,4.209,0,0,0,.6-.968,6.413,6.413,0,0,0,.067-2.3,5.1,5.1,0,0,0-.106-.527,5.273,5.273,0,0,0-.651-.939c1.946-7.957,6.069-14.208,13.977-17.314,5.4-2.128,7.229-1.38,10.785,3.883a4.163,4.163,0,0,0-.719.968,14.967,14.967,0,0,1-.182,3.058c-.009.01-.009.01,0,.01a4.353,4.353,0,0,0,.067,1.122,2.947,2.947,0,0,0,.844,1.553Z" transform="translate(-12.149 -1.393)"/><path d="M465.294,506.171c-1.237,1.342-2.569,2.368-1.083,4.679.892,1.371,1.074,3.825-1.783,4.343-1.726.9-3.471.537-5.215.067-1.8-.594-1.313-2.876-2.751-3.739a.968.968,0,0,0-.23-.69,1.269,1.269,0,0,0-.8-.4h-.01c-1.131-.019-2.263-.038-3.394-.048-.009.01-.009,0-.009,0q-3.624-.029-7.229,0c-1.256,0-2.5.019-3.748.038h-.317c-.038.01-.067.01-.1.019a1.3,1.3,0,0,0-.69.364,1.034,1.034,0,0,0-.259.7l-3.854,1.84c-2.262.9-4.544,1.476-6.951.623l-.086-.029c-.077-.048-.153-.1-.23-.153-2.157-1.505-1.572-3.451-.661-5.445,1.256-1.505,2.09-2.8.2-4.688a4.231,4.231,0,0,1-.23-5.906c.393-.01.5.92.69.527.4-.824,1.179-.805,1.812-1.055a1.569,1.569,0,0,0,.441-.259c1.467-1.707,2.694-.92,3.864.374,1.169,1.122-.46,3.058,1.169,4.046l.777,1.208a2.855,2.855,0,0,0,1.169.9c1.716.067,3.442.134,5.158.172,3.125.086,6.251.106,9.366-.019,1.447-.048,2.9-.125,4.352-.24a1.437,1.437,0,0,0,.882-1.122c2.665-5.177,6.107-6.04,9.712-2.435A6.7,6.7,0,0,1,465.294,506.171Z" transform="translate(-1.765 -2.144)"/><path d="M854.007,519.605c-.6,2.454-1.2,4.9-1.8,7.353-1.083,4.372-3.835,6.327-8.36,6.088-3.547-.192-10.45-5.944-10.939-9.433-.172-1.256-.24-2.627.853-3.557,4.765-4.094,9.942-7.487,16.1-9.069,2.272-.585,2.713,2.09,4.257,2.876C854.1,515.78,853.316,517.678,854.007,519.605Z" transform="translate(-18.621 -2.761)"/><path d="M905.111,523.514c-.776,1.515-.038,3.336-.978,4.813-2.943,4.324-7.114,6.26-12.185,5.5-5.186-.786-5.992-5.216-6.874-9.385a2.577,2.577,0,0,0,.365-1.812c-.029-.326.153-.595.134-.9-.374.259-.288.844-.738,1.055a6.361,6.361,0,0,1-.758-4.075,4.513,4.513,0,0,0,.575-.757v-.01a2.666,2.666,0,0,0,.153-.278,8.2,8.2,0,0,1,.1-.872,4.86,4.86,0,0,1,2.963-3.911c.182-.077.364-.144.566-.211s.4-.125.614-.182c1.409-.1,2.78-.077,3.518,1.448A41.83,41.83,0,0,1,905.111,523.514Z" transform="translate(-20.736 -2.825)"/><path d="M904.586,487.605c-2.7,4.918-3.72,5.225-6.586,1.965-.105-1.917.863-3.825.019-5.743,1.956-4.41,3.557-5.253,5.781-3.058C905.209,482.917,904.346,485.324,904.586,487.605Z" transform="translate(-21.314 -1.468)"/><path d="M912.635,495.76c-1.621,2.569-1.908,6.845-6.759,5.292-1.266-1.946-.125-4.2-.8-6.212.882-3.6,2.761-5.474,6.653-3.768C912.807,492.482,911.542,494.351,912.635,495.76Z" transform="translate(-21.607 -1.915)"/><path d="M563.938,491.807c-2.3,1-4.717.307-7.085.46-.134,0-.259.02-.393.029h-.192c-2.4,0-4.8.01-7.209,0l-.47.029c-.115,0-.221.01-.336,0-2.09.038-4.218-.355-6.279.345a1.9,1.9,0,0,1-2.08-1.448,3.249,3.249,0,0,1-.1-2.867,2.234,2.234,0,0,1,.211-.345c1.467,2.521,3.739,2.838,6.481,2.953C552.309,491.212,558.224,489.717,563.938,491.807Z" transform="translate(-6.505 -1.815)"/><path d="M503.036,483.883c-6.912,1.112-13.872.307-20.813.518a2.043,2.043,0,0,1-.547-.038,1.532,1.532,0,0,1-.316-.086,1.034,1.034,0,0,1-.288-.153,1.628,1.628,0,0,1-.412-.326c2.349-2,5.1-.949,7.689-.939,4.889.01,9.779.172,14.668.278A6.451,6.451,0,0,0,503.036,483.883Z" transform="translate(-4.074 -1.59)"/><path d="M456.135,511.016l-.009.01a4.835,4.835,0,0,1-1.39.374c-2.052.268-4.228-.5-6.2.47l-2.9.057c-2.281-1.141-4.812-.182-7.181-.556a5.336,5.336,0,0,1-1.448-.431,38.086,38.086,0,0,1,19.116.067C456.126,511.006,456.126,511.016,456.135,511.016Z" transform="translate(-2.27 -2.713)"/><path d="M456.091,503.9A95.172,95.172,0,0,1,435,503.95c.019-.364.029-.728.048-1.093q10.454-.158,20.928-.307Z" transform="translate(-2.188 -2.416)"/><path d="M897.64,496.832a3.956,3.956,0,0,1-.921.633c-.105.057-.211.105-.316.153-.134.057-.278.1-.412.144a4.774,4.774,0,0,1-.805.154,25.272,25.272,0,0,1-3.3-.01,5.827,5.827,0,0,0-2.291.383,34.507,34.507,0,0,1-5.071.058,5.53,5.53,0,0,1-1.525-.441c.01-.364.01-.719.019-1.074,0-.211.01-.422.01-.633C887.909,496.248,892.8,495.96,897.64,496.832Z" transform="translate(-20.695 -2.153)"/><path d="M900.388,504.079c-.355,1.007-.9,1.783-2.1,1.783-5.014-1.189-10.162.182-15.2-.681l-.489-.086c-.2-.038-.4-.086-.6-.134,5.445-1.745,11.025-.959,16.556-.882C899.17,504.089,899.784,504.089,900.388,504.079Z" transform="translate(-20.653 -2.469)"/><path d="M899.624,498.225l-.115.317-1.294.115c-4.583.422-9.165.882-13.69-.259-.508-.125-1.016-.268-1.524-.441,2.253-.01,4.5-.01,6.749-.01.537-.115,1.074-.211,1.611-.278a21.089,21.089,0,0,1,3.288-.259h.058c.671,0,1.342.039,2.013.105a19.647,19.647,0,0,1,2.665.47Z" transform="translate(-20.694 -2.203)"/><path d="M898.288,505.906c-5.378,1.026-10.8-.2-16.192.326-.019-.3-.048-.594-.067-.892-.009-.115-.019-.23-.029-.335.307.029.6.048.911.067.355.019.719.029,1.083.029,1.582.029,3.173-.067,4.765-.144a34.16,34.16,0,0,1,5.857.086,15.7,15.7,0,0,1,3.672.863Z" transform="translate(-20.653 -2.511)"/><path d="M433.9,514.086c-1.745,2.713-4,3.586-6.941,1.87a1.392,1.392,0,0,1-.326-1.429,1.784,1.784,0,0,1,.307-.527Z" transform="translate(-1.839 -2.889)"/><path d="M656.877,465.65c-.048.652-.1,1.313-.144,1.975-.45.048-.892.086-1.342.134.057-3.308-2.244-6.96,1.39-9.76.02.652.038,1.3.067,1.956A7.886,7.886,0,0,0,656.877,465.65Z" transform="translate(-11.264 -0.575)"/><path d="M880.921,509.882c-1.1,2.358-.211,4.851-.508,7.267a1.978,1.978,0,0,1-.01.412,1.546,1.546,0,0,1-.086.3.491.491,0,0,1-.067.163,1.567,1.567,0,0,1-.336.469,6.441,6.441,0,0,1-.326-.623c-1.409-3.03-.364-6.27-.412-9.4a1.158,1.158,0,0,1,1.016-1.2,4.525,4.525,0,0,1,1.093-.115C881.161,508.061,881.036,508.972,880.921,509.882Z" transform="translate(-20.523 -2.606)"/><path d="M493.834,515.388c.1,1.083.911,3.308-1.86,2.33a12.72,12.72,0,0,1-.058-5.733c.374-.287.93-.9,1.083-.815C494.841,512.205,493.71,513.969,493.834,515.388Z" transform="translate(-4.526 -2.771)"/><path d="M531.741,492.035c-2.263,2.761-5.062,1.419-7.737,1.007a.879.879,0,0,1-.364-.729c.01-.077.01-.144.019-.2.009-.029.009-.058.019-.077.01-.038.01-.067.029-.086q.014-.058.057-.057a.871.871,0,0,1,.662-.192.01.01,0,0,1,.007,0,.01.01,0,0,1,0,.007.861.861,0,0,1,.479.249C527.2,491.987,529.469,492.007,531.741,492.035Z" transform="translate(-5.849 -1.967)"/><path d="M848.884,495.816a1.891,1.891,0,0,1-.48.872.461.461,0,0,1-.1.1.391.391,0,0,1-.1.086,1.083,1.083,0,0,1-.124.1,2.975,2.975,0,0,1-.672.355c-.652-.019-1.313.105-1.965.076a2.638,2.638,0,0,1-1.572-.47l-1.428-.029-1.6-.029C843.189,493.908,846.094,495.289,848.884,495.816Z" transform="translate(-18.953 -2.105)"/><path d="M649.663,445.911c-.518.144-1.035.259-1.544.355a12.862,12.862,0,0,1-5.474-.134c-.335-.086-.68-.192-1.026-.307C644.323,443.687,647.008,443.284,649.663,445.911Z" transform="translate(-10.723 0)"/><path d="M532.1,491.845c-.038-1.956-.086-3.911-.125-5.867a.839.839,0,0,0-.105-.153c-.077-.125-.153-.249-.24-.374.086-.086.163-.182.249-.268.067-.067.125-.125.182-.192C535.513,487.253,535.3,489.534,532.1,491.845Z" transform="translate(-6.179 -1.69)"/><path d="M426.842,515.744c-2.962-1.908-4.937-3.969-.987-6.874.326,1.639-.585,3.519.968,4.918,0,.24.01.469.01.709C426.842,514.91,426.842,515.332,426.842,515.744Z" transform="translate(-1.718 -2.677)"/><path d="M531.567,484.933l-.211-.019c-.479.105-.968.2-1.448.278a28.531,28.531,0,0,1-9.922-.24l.038-.067c-.22-.115-.345-.22-.364-.326v-.009a.131.131,0,0,1,.048-.144.535.535,0,0,1,.374-.182l5.906-.4C527.9,483.888,530.052,482.824,531.567,484.933Z" transform="translate(-5.685 -1.633)"/><path d="M534.818,510.074l-10.872-.23c-.2-.134-.307-.269-.316-.393v-.029a.257.257,0,0,1,.048-.144c.1-.182.2-.268.3-.268q5.9-.014,11.773-.019C535.9,509.747,535.4,509.949,534.818,510.074Z" transform="translate(-5.849 -2.681)"/><path d="M860.932,529.361c.029,1.227-.4,1.572-1.093,1.5a4.315,4.315,0,0,1-.94-.269c.048-.316.087-.633.135-.958.987-2.08.2-4.3.46-6.423a3.055,3.055,0,0,1,.134-.939,1.36,1.36,0,0,1,.1-.278c.01-.029.019-.048.029-.077a1.184,1.184,0,0,1,.211-.115.141.141,0,0,1,.057-.019.074.074,0,0,1,.048-.019.811.811,0,0,1,.259-.038.985.985,0,0,1,.585.269C860.913,524.443,860.865,526.906,860.932,529.361Z" transform="translate(-19.698 -3.207)"/><path d="M888.793,513.017c-2.56,1.026-2.444,3.873-3.863,5.675a5.939,5.939,0,0,1-.259-.757v-.01a7.909,7.909,0,0,1,.23-4.419,1.973,1.973,0,0,1,2-1.486c.355.508,1.064.355,1.543.633A.845.845,0,0,1,888.793,513.017Z" transform="translate(-20.755 -2.806)"/><path d="M483.286,508.863a.82.82,0,0,1-.038.163.085.085,0,0,1-.01.048.851.851,0,0,1-.048.144,1.129,1.129,0,0,1-.432.518c-2.013-.316-4.621,1.38-5.839-1.7h.048q2.891-.014,5.771-.038A1.355,1.355,0,0,1,483.286,508.863Z" transform="translate(-3.919 -2.641)"/><path d="M686.106,461.839a2.216,2.216,0,0,1-1.036-.077c-.585-.211-.556-.786-.278-1.515.057-.134.105-.259.153-.383.211-1.313-.441-2.838.968-3.845A7.925,7.925,0,0,1,686.106,461.839Z" transform="translate(-12.499 -0.493)"/><path d="M488.552,491.5c-1.85.278-3.7.546-5.551.824-1.122-.154-2.521.307-3-1.323a.6.6,0,0,1,.585-.249h.01a.825.825,0,0,1,.355.211h7.535C488.5,491.133,488.523,491.315,488.552,491.5Z" transform="translate(-4.047 -1.928)"/><path d="M651.1,447.75a41.822,41.822,0,0,0-9.961-.8.691.691,0,0,1,.46-1.055c.652.01,1.313.01,1.966.019,1.074.01,2.157.029,3.231.038l2.847.029C650.128,446.581,650.607,447.165,651.1,447.75Z" transform="translate(-10.698 -0.075)"/><path d="M680.724,448.074a4.569,4.569,0,0,1-5.7-.048A5.352,5.352,0,0,1,680.724,448.074Z" transform="translate(-12.103 -0.13)"/><path d="M899.675,497.962c-.738,0-1.476-.01-2.215-.01h-.029c-.652,0-1.3,0-1.956-.01-1.1,0-2.2-.01-3.3-.01-.709-.01-1.429-.01-2.138-.01a4.049,4.049,0,0,1,.422-.278,3.766,3.766,0,0,1,.69-.326c2.167-.815,4.583.192,6.778-.46C898.754,496.84,899.665,496.706,899.675,497.962Z" transform="translate(-20.985 -2.18)"/><path d="M563.982,500.838c-2.31-.22-4.755.853-6.922-.719C559.428,499.832,561.969,497.771,563.982,500.838Z" transform="translate(-7.23 -2.276)"/><path d="M467.039,506.337q-.014-3.164-.029-6.327C469.56,502.1,469.109,504.219,467.039,506.337Z" transform="translate(-3.51 -2.311)"/><path d="M601.957,494.777c-2.579-1.342-.23-3.509-.853-5.177C603.28,491.009,603.136,492.812,601.957,494.777Z" transform="translate(-9.033 -1.88)"/><path d="M415.626,476.167c-2.483,2.09-4.985,1.256-7.5.1-.009,0-.019-.01-.029-.01A12.375,12.375,0,0,1,415.626,476.167Z" transform="translate(-1.076 -1.303)"/><path d="M857.617,496.981a20.419,20.419,0,0,1-9.232.019c-.115-.029-.24-.067-.355-.1.048-.038.086-.086.134-.125s.106-.1.163-.144c.288-.269.566-.527.853-.786q4.185.014,8.37.01c.01.278.028.546.048.825C857.607,496.78,857.607,496.885,857.617,496.981Z" transform="translate(-19.25 -2.139)"/><path d="M702.016,488.791a3.6,3.6,0,0,1-.959-.623c-1.62-1.438-.144-3.422-.067-5.167.3,0,.6,0,.9.01A7.822,7.822,0,0,1,702.016,488.791Z" transform="translate(-13.147 -1.608)"/><path d="M686.068,462c-.086.94-.172,1.87-.268,2.809-3.423-.892-1.812-2.723-1.045-4.4.057-.134.105-.259.153-.383a2.835,2.835,0,0,0,.307,1.227,1.66,1.66,0,0,0,.853.748Z" transform="translate(-12.461 -0.659)"/><path d="M445.628,511.974l-7.439.144L437,510.986a9.345,9.345,0,0,0,2.138.067c.134,0,.268-.009.412-.019A15.839,15.839,0,0,1,443.3,511,5.079,5.079,0,0,1,445.628,511.974Z" transform="translate(-2.27 -2.76)"/><path d="M791.7,538.851c-2.1.6-4.295,1.917-5.973-.767C787.734,538.266,789.881,537.279,791.7,538.851Z" transform="translate(-16.676 -3.878)"/><path d="M578.622,484.932c-2.684.987-5.445.326-8.177.422a1.013,1.013,0,0,1-.49-.374.1.1,0,0,1-.038-.067c-.01-.01-.01-.01-.01-.019a.877.877,0,0,1,.105-.834c2.867.01,5.733.029,8.59.038C578.6,484.376,578.613,484.654,578.622,484.932Z" transform="translate(-7.758 -1.652)"/><path d="M851.619,504.649v.01l-.038.45q-4.285-.115-8.571-.221c0-.288.019-.575.038-.863.192-.067.374-.144.566-.192a4.516,4.516,0,0,1,.594-.163c2.224-.489,4.5.038,6.74-.125a.815.815,0,0,1,.69.412.4.4,0,0,1,.029.067v.009A1,1,0,0,1,851.619,504.649Z" transform="translate(-19.042 -2.453)"/><path d="M648.667,481.733a6.13,6.13,0,0,1-5.637.134,4.747,4.747,0,0,1,5.637-.134Z" transform="translate(-10.781 -1.52)"/><path d="M897.97,489.753c-1.141-1.917-.7-3.835.02-5.743A4.329,4.329,0,0,1,897.97,489.753Z" transform="translate(-21.284 -1.649)"/><path d="M702,488.791c-.038.307-.077.613-.115.93-2.32-.92-2.531-2.473-.911-6.72.211,1.313-.259,2.732,0,4.036-.01.01-.01.01,0,.01A3.012,3.012,0,0,0,702,488.791Z" transform="translate(-13.131 -1.608)"/><path d="M533.592,501.1c-.326.288-.642.585-.968.882a6.716,6.716,0,0,1-1.2.316c-.019,0-.029.01-.039.01-1.984.355-4-.01-6,.019a1.161,1.161,0,0,1-.431-.345.292.292,0,0,1-.057-.105c-.01-.01-.019-.01-.01-.019a.876.876,0,0,1,.106-.834A29.725,29.725,0,0,1,533.592,501.1Z" transform="translate(-5.898 -2.341)"/><path d="M854.877,519.732a4.429,4.429,0,0,1,.105-5.742C856.391,515.927,855.442,517.825,854.877,519.732Z" transform="translate(-19.491 -2.888)"/><path d="M490.612,510.071l-.949-.259c-1.984-.959-4.209.057-6.222-.6a3.815,3.815,0,0,1-.422-.163v-.058c-.01-.326-.019-.662-.029-1C485.463,508.911,489.03,505.862,490.612,510.071Z" transform="translate(-4.17 -2.631)"/><path d="M594.67,484.94a6.289,6.289,0,0,1-.863,1.1c0,.01-.01,0-.01,0-2,2-4.391.978-6.788-.105a5.863,5.863,0,0,1,4.621-.067,2.1,2.1,0,0,0,2.071-.863C594.027,484.988,594.344,484.959,594.67,484.94Z" transform="translate(-8.467 -1.688)"/><path d="M905.844,501.242c-2.3-1.812-1.553-4.007-.8-6.212C906.716,496.919,905.633,499.162,905.844,501.242Z" transform="translate(-21.574 -2.105)"/><path d="M892.685,513.9a5.261,5.261,0,0,0-3.787-.9,3.931,3.931,0,0,1-.911-.153,1.457,1.457,0,0,1-.978-.844C889.292,511.441,891.688,510.588,892.685,513.9Z" transform="translate(-20.86 -2.784)"/><path d="M456.642,511.053l-.01.01-.009.01c-.383.355-.777.719-1.16,1.064-2.148-.077-4.285-.144-6.433-.22a4.642,4.642,0,0,1,1.994-.921s0,.01.01,0a12.221,12.221,0,0,1,3.394.048h.009a10.317,10.317,0,0,0,2.176.01Z" transform="translate(-2.767 -2.76)"/><path d="M556.645,492.04v.652a.389.389,0,0,0-.038.46q-3.812-.115-7.622-.211c-.249-.144-.365-.3-.355-.451a.19.19,0,0,1,.029-.105c.1-.192.192-.288.3-.288Z" transform="translate(-6.882 -1.981)"/><path d="M880.965,510c-.038,2.56-.067,5.129-.1,7.688-.172.259-.345.355-.508.288a.192.192,0,0,1-.077-.039.687.687,0,0,1-.25-.268,14.216,14.216,0,0,0-.057-3.125A5.8,5.8,0,0,1,880.965,510Z" transform="translate(-20.567 -2.723)"/><path d="M423.046,488.909c.23-1.946-.738-4.046.738-5.829C424.349,485.122,425.519,487.25,423.046,488.909Z" transform="translate(-1.689 -1.611)"/><path d="M821.653,493.952c-.211.077-.431.153-.642.221a.8.8,0,0,1-.144.038c-2.129.566-4.314.077-6.461.144a1.036,1.036,0,0,1-.47-.393c-.019-.01-.019-.019-.019-.038a.053.053,0,0,1-.029-.048.869.869,0,0,1,.115-.815l7.631.029A5.229,5.229,0,0,1,821.653,493.952Z" transform="translate(-17.837 -2.023)"/><path d="M861.93,492.7c.01,1.361-.5,1.572-1.227,1.409a5.273,5.273,0,0,1-.853-.288c.029-.939.057-1.879.077-2.828a1.917,1.917,0,0,1,1.4-.259C861.883,490.949,861.921,491.745,861.93,492.7Z" transform="translate(-19.738 -1.926)"/><path d="M561.846,484.836a.057.057,0,0,1-.01.039c-.009.019-.019.029-.029.048a1.024,1.024,0,0,1-.249.307,10.679,10.679,0,0,1-2.761.172h-.355c-1.352-.01-2.713.058-4.065-.067a.84.84,0,0,1-.47-.4c-.01-.01-.01-.01-.01-.019a.034.034,0,0,1-.009-.029.823.823,0,0,1,.125-.671l.048-.422c2.541-.144,5.091-.451,7.612.2A.8.8,0,0,1,561.846,484.836Z" transform="translate(-7.098 -1.632)"/><path d="M569.689,484.058c0,.278-.019.556-.038.834-.019.01-.039.01-.058.019a1.639,1.639,0,0,0-.2.067,11.064,11.064,0,0,1-7.085-.038h-.019c-.038-.019-.076-.029-.115-.048a.524.524,0,0,0-.115-.038c-.009-.278-.019-.566-.048-.844C564.57,484.029,567.129,484.039,569.689,484.058Z" transform="translate(-7.434 -1.65)"/><path d="M860.338,520.059a11.652,11.652,0,0,1-.259,1.38,2.313,2.313,0,0,1-.048.249l-.057-.009-.105-.01a.706.706,0,0,1-.23.278c-.172.115-.345.019-.518-.259,0-2.56.01-5.11.019-7.669.259,0,.517,0,.776-.019a10.491,10.491,0,0,1,.422,1.658,13.032,13.032,0,0,1,0,4.4Z" transform="translate(-19.708 -2.889)"/><path d="M860.056,526.353a5.107,5.107,0,0,1-1.016,3.288c.029-2.54.048-5.081.077-7.622.2,0,.412-.009.614-.019h.134a9.851,9.851,0,0,0,.009,1.764v.019c.058.757.154,1.524.173,2.272C860.056,526.161,860.056,526.257,860.056,526.353Z" transform="translate(-19.705 -3.219)"/><path d="M682.939,519.755c-2.215-1.323-2.656-3.317-2.148-5.675a12.266,12.266,0,0,1,2.148,5.675Z" transform="translate(-12.333 -2.892)"/><path d="M524.67,501.038c-.01.278-.029.556-.029.834a.177.177,0,0,1-.067.019c-.105.038-.221.077-.326.105a10.854,10.854,0,0,1-6.3.153c-.316-.1-.623-.2-.939-.316a2.078,2.078,0,0,0,0-.844C519.57,501.009,522.12,501.019,524.67,501.038Z" transform="translate(-5.575 -2.351)"/><path d="M552.081,516.026c-.335.038-.767-.815-1.15-1.256.048-.6.106-1.2.154-1.793.93-.364,1.908-.642,1.792.891C552.819,514.636,553.519,515.873,552.081,516.026Z" transform="translate(-6.977 -2.834)"/><path d="M490.653,499.95v1.026c-2.368.892-4.813.307-7.228.374a.958.958,0,0,1-.508-.422c-.01-.009-.019-.019-.01-.029-.019,0-.019,0-.009-.01a.863.863,0,0,1,.1-.815C485.543,500.036,488.094,499.988,490.653,499.95Z" transform="translate(-4.164 -2.308)"/><path d="M520.7,532.967a6.425,6.425,0,0,1-.01.862c-2.215-.009-4.429-.028-6.653-.038.316-.278.623-.556.939-.834A7.956,7.956,0,0,1,520.7,532.967Z" transform="translate(-5.453 -3.65)"/><path d="M615.876,474.03c-1.016.412-.786-.911-1.016-1.534.278-1.112,1.457-.939,2.138-1.486C618.57,472.726,616.969,473.579,615.876,474.03Z" transform="translate(-9.618 -1.113)"/><path d="M613.877,473.69v6.241c-1.276-1.074-.556-2.33-1.007-3.3C612.956,475.56,612.678,474.371,613.877,473.69Z" transform="translate(-9.535 -1.223)"/><path d="M653.087,477.09c-.6.968-1.208,1.927-1.812,2.9-.3-.125-.748-.278-1.074-.412-.259-.1-.441-.182-.441-.22A2.924,2.924,0,0,1,653.087,477.09Z" transform="translate(-11.059 -1.363)"/><path d="M905.024,486.869a.736.736,0,0,1-.192.786c-1.63-2.128-.432-4.573-.786-6.835.345.3.691.6,1.036.9A8.087,8.087,0,0,1,905.024,486.869Z" transform="translate(-21.56 -1.518)"/><path d="M873.674,483.825a8.137,8.137,0,0,1-1.323.479h-.009a7.906,7.906,0,0,1-3.787-.019,11.448,11.448,0,0,1-1.515-.47,1.6,1.6,0,0,0-.01-.6,13.261,13.261,0,0,1,6.654,0A1.872,1.872,0,0,0,873.674,483.825Z" transform="translate(-20.035 -1.599)"/><path d="M481.31,484.329a.481.481,0,0,1-.01.259.449.449,0,0,1-.029.067c-.115.2-.23.3-.336.3,0,1.908-.009,3.815-.009,5.723h-.067c-.3.019-.585.029-.882.038l-.019.029a10.384,10.384,0,0,1-.087-6.184l.738-.709.432.105A.885.885,0,0,1,481.31,484.329Z" transform="translate(-4.023 -1.643)"/><path d="M476.866,507.771v.019c-.01-.01-.029-.01-.039-.019h-.01c-3.413-1.563-2.559-3.835-.987-6.231a2.63,2.63,0,0,1,.508,1.074c.326,1.419-.364,3.029.489,4.352A1.638,1.638,0,0,0,476.866,507.771Z" transform="translate(-3.817 -2.374)"/><path d="M714.932,504.647c-2.147-1.927-2.387-3.336,1.007-3.777A6.643,6.643,0,0,0,714.932,504.647Z" transform="translate(-13.686 -2.346)"/><path d="M489.664,509.859l-6.654-.086a5.389,5.389,0,0,0,.01-.681c.163.01.307.019.47.019a18.77,18.77,0,0,0,1.927-.125c.019,0,.029-.01.039,0,.259-.019.518-.048.777-.058.173-.01.345-.019.518-.019a4.428,4.428,0,0,1,2.914.949Z" transform="translate(-4.171 -2.678)"/><path d="M523.73,493.031c-1.86.019-3.71.029-5.56.048-.393-.355-.776-.719-1.17-1.074a9.741,9.741,0,0,1,6.433-.067c.086.019.182.058.268.086v.134C523.711,492.446,523.72,492.743,523.73,493.031Z" transform="translate(-5.575 -1.956)"/><path d="M787,489.188c-1,.326-.911-.978-1.131-1.668.662-.546,1.333-1.093,2-1.639C787.644,487.021,788.621,488.651,787,489.188Z" transform="translate(-16.682 -1.727)"/><path d="M548.714,492.936c-2.215-.038-4.42-.067-6.634-.105a4.188,4.188,0,0,1,2.1-.863,9.711,9.711,0,0,1,2.176.029,14.663,14.663,0,0,0,2.33.1c0,.134.009.259.009.393S548.7,492.783,548.714,492.936Z" transform="translate(-6.611 -1.976)"/><path d="M880.87,518.019c-.009,2.224-.009,4.448-.019,6.672-1.591-1.716-.508-3.845-.891-5.752.019-.307.048-.624.077-.94.087,0,.163.01.25.01h.162C880.592,518.019,880.727,518.019,880.87,518.019Z" transform="translate(-20.569 -3.054)"/><path d="M663.026,472.743a12.41,12.41,0,0,1,.019-5.724A4.485,4.485,0,0,1,663.026,472.743Z" transform="translate(-11.594 -0.948)"/><path d="M477.213,501.619a.932.932,0,0,1-.259.336c-.019,1.668-.048,3.327-.067,4.985a3.4,3.4,0,0,1-.853-2.051c-.125-1.112.086-2.282-.144-3.375.22-.192.45-.383.681-.575l.422-.029c.067,0,.124-.009.192-.009.009.019.019.029.019.048a.18.18,0,0,1,.019.067A.773.773,0,0,1,477.213,501.619Z" transform="translate(-3.877 -2.347)"/><path d="M629.853,526.58l-2.032-1.716c.105-.3.211-.594.316-.9C631.041,523.177,629.613,525.449,629.853,526.58Z" transform="translate(-10.153 -3.293)"/><path d="M479.923,490.773c-1.62-2.042-1.9-4.093-.086-6.183Z" transform="translate(-3.988 -1.674)"/><path d="M905,528.8c.278-1.611-.728-3.49.978-4.813A3.712,3.712,0,0,1,905,528.8Z" transform="translate(-21.601 -3.301)"/><path d="M656.924,465.735a4.386,4.386,0,0,1-.029-5.695A11.237,11.237,0,0,1,656.924,465.735Z" transform="translate(-11.311 -0.659)"/><path d="M813.781,493.869c-.038.019-.067.029-.106.048a.394.394,0,0,1-.1.038,6.859,6.859,0,0,1-4.64.278l-.086-.029c-.287-.086-.566-.182-.853-.278.364-.335.728-.671,1.093-1.016l4.669.144C813.762,493.322,813.771,493.6,813.781,493.869Z" transform="translate(-17.596 -2.017)"/><path d="M516.259,494.07q-.158,2.833-.316,5.676C514.6,497.771,514.255,495.853,516.259,494.07Z" transform="translate(-5.486 -2.065)"/><path d="M581.746,514.862c-1.754.365-3.633,1.515-4.966-.8C578.458,514.21,580.279,513.395,581.746,514.862Z" transform="translate(-8.045 -2.887)"/><path d="M428.863,496.977a.615.615,0,0,0-.441.259c-.681.777-1.007,2.866-2.5.527C426.514,496.048,427.636,496.287,428.863,496.977Z" transform="translate(-1.812 -2.164)"/><path d="M573.867,511.727a4.718,4.718,0,0,1-.144-5.637,7.589,7.589,0,0,1,.144,5.637Z" transform="translate(-7.883 -2.562)"/><path d="M554.755,534.005c-.019.278-.019.547-.019.815-2.023.623-4.027,1.1-5.666-.853a1.607,1.607,0,0,0,.824.048A5.361,5.361,0,0,1,554.755,534.005Z" transform="translate(-6.9 -3.691)"/><path d="M434.182,501.436c-2.56-.719-.585-2.752-1.169-4.046C434.767,498.339,434.354,499.931,434.182,501.436Z" transform="translate(-2.098 -2.202)"/><path d="M482.745,500.88c-.01.009-.029.009-.039.019s-.029.01-.048.019a6.617,6.617,0,0,1-4.448.355,7.935,7.935,0,0,1-.959-.307c-.058-.019-.105-.048-.163-.067l-.067-.038-.173-.086-.249.115c1.831-1.831,4.026-1.045,6.135-.824C482.736,500.333,482.745,500.611,482.745,500.88Z" transform="translate(-3.906 -2.298)"/><path d="M463.825,516.02c-1.707,2.109-3.451,1.544-5.215.067C460.355,516.058,462.09,516.039,463.825,516.02Z" transform="translate(-3.163 -2.972)"/><path d="M787.958,508c-.633.623-1.266,1.256-1.9,1.889-.844-.326-.988-1.035-1.026-1.822l-.144-.345c.5-.748,1.083-1.332,2.1-1.016a.368.368,0,0,1-.086.47c.134.038.269.077.393.115h.01a1,1,0,0,1,.46.288A.785.785,0,0,1,787.958,508Z" transform="translate(-16.642 -2.584)"/><path d="M905.07,486.908q.03-2.574.058-5.148A4.452,4.452,0,0,1,905.07,486.908Z" transform="translate(-21.606 -1.557)"/><path d="M578.758,494.127c-1.563-.115-3.135-.24-4.7-.364C575.719,492.727,577.32,492.382,578.758,494.127Z" transform="translate(-7.932 -2.017)"/><path d="M785.9,510.88c0,1.525,0,3.049-.01,4.573C784.312,513.929,784,512.4,785.9,510.88Z" transform="translate(-16.629 -2.76)"/><path d="M912.919,495.788c-1.553-1.323-.691-3.106-.9-4.688C914.3,492.279,913.13,494.129,912.919,495.788Z" transform="translate(-21.891 -1.942)"/><path d="M539.966,487.922l-.029.92c-.029.757-.058,1.524-.086,2.291-1.572-1.773-2.1-3.528.048-5.263C539.918,486.551,539.946,487.231,539.966,487.922Z" transform="translate(-6.462 -1.726)"/><path d="M839.033,501.8c-.422-1.63-.892-3.259.882-4.448C839.743,498.855,840.558,500.562,839.033,501.8Z" transform="translate(-18.862 -2.201)"/><path d="M725.745,501.127l-.92.834a3.793,3.793,0,0,1-3.825-.01c.393-.374.8-.748,1.189-1.122C723.377,500.935,724.566,501.031,725.745,501.127Z" transform="translate(-14.002 -2.345)"/><path d="M884.9,518.756h-.834c-.307-1.812-1.054-3.7.805-5.186.009,1.093.009,2.186.019,3.269C884.887,517.482,884.9,518.114,884.9,518.756Z" transform="translate(-20.721 -2.871)"/><path d="M885.11,524.777c-.087-.556-.163-1.112-.24-1.658.163-.757.326-1.505.556-2.579C886.146,522.266,886.3,523.589,885.11,524.777Z" transform="translate(-20.772 -3.159)"/><path d="M676.791,501.765l-.287-.048-.288.038c-.029-1.582-.057-3.154-.086-4.736.268,0,.527-.01.8-.019C677.606,498.611,677.884,500.2,676.791,501.765Z" transform="translate(-12.149 -2.186)"/><path d="M613.178,486.748c-.086-.556-.182-1.112-.278-1.668.154-.757.316-1.505.537-2.55C614.166,484.208,614.242,485.521,613.178,486.748Z" transform="translate(-9.537 -1.588)"/><path d="M639.108,489.639c-.393,1.035.01,2.349-1.083,3.154a5.166,5.166,0,0,1-.01-4.794,7.4,7.4,0,0,0,.8.019C638.906,488.556,639,489.093,639.108,489.639Z" transform="translate(-10.55 -1.814)"/><path d="M863.063,540.821a6.251,6.251,0,0,1,6.587,0Z" transform="translate(-19.871 -3.958)"/><path d="M788.045,507.829,786.99,507c4.86-4.481,10.678-4.869,16.873-4.19,2.735.3,2.948,1.115,1.475,3.164-1.381,1.924-2.221,4.522-4.026,5.778-1.963,1.365-3.212-2.161-5.4-2.163a8.841,8.841,0,0,1-2.268-.615,1.593,1.593,0,0,1-1.846-.244C790.771,507.487,789.325,508,788.045,507.829Z" transform="translate(-16.728 -2.415)"/><path d="M808,493.969l5.779-.06,7.629.079A19.491,19.491,0,0,1,808,493.969Z" transform="translate(-17.596 -2.059)"/><path d="M802.609,500.952c-2.876,1.173-4.865,1.19-8.608.072A16.623,16.623,0,0,1,802.609,500.952Z" transform="translate(-17.018 -2.327)"/><path d="M802.609,500.926,794,501a8.532,8.532,0,0,1,8.608-.071Z" transform="translate(-17.018 -2.302)"/><path d="M786.974,506.63c-.641.457-1.12,1.252-2.1,1.014a1.764,1.764,0,0,1,1.041-2.841C787.36,504.432,786.671,505.963,786.974,506.63Z" transform="translate(-16.625 -2.506)"/><path d="M791.88,509l1.84.247c-1.2,1.009-2.5.843-4.626.175Z" transform="translate(-16.815 -2.682)"/><path d="M481,484.956c.035-.335.068-.671.1-1l21.94-.012c-5.643,2.119-11.523.584-17.272,1.1a42.461,42.461,0,0,1-4.771-.086Z" transform="translate(-4.088 -1.647)"/><path d="M517.011,501.874l7.627.032,7.669.124A24.445,24.445,0,0,1,517.011,501.874Z" transform="translate(-5.575 -2.387)"/><path d="M477.1,500.948l5.656-.019,7.652.089c-4.355,1.977-8.955.465-13.415.941Z" transform="translate(-3.922 -2.348)"/><path d="M520,485l11.371-.034.118,1C527.678,485.456,523.692,487,520,485Z" transform="translate(-5.699 -1.689)"/><path d="M523.7,492l-6.7-.019a7.13,7.13,0,0,1,7.643-.056Q524.172,491.944,523.7,492Z" transform="translate(-5.575 -1.932)"/><path d="M519.813,484.253a2.259,2.259,0,0,0-.067.656h-6.579l-.013-.655Z" transform="translate(-5.416 -1.66)"/><path d="M523.753,509.007a8,8,0,0,1-.035.842h-5.561l-.029-.841Z" transform="translate(-5.622 -2.682)"/><path d="M520.748,532.945l-5.73-.009A4.348,4.348,0,0,1,520.748,532.945Z" transform="translate(-5.493 -3.626)"/><path d="M514.558,522.284a3.518,3.518,0,0,1-.321-3.164C515.359,519.857,514.847,520.826,514.558,522.284Z" transform="translate(-5.451 -3.1)"/><path d="M721,502l3.822.012C723.545,503.1,722.269,503.909,721,502Z" transform="translate(-14.002 -2.393)"/><path d="M851.621,503.993H843.05c4.77-1.793,9.546-1.489,14.322-.025A8.4,8.4,0,0,1,851.621,503.993Z" transform="translate(-19.044 -2.424)"/><path d="M847.865,496.95l9.587.079a20.4,20.4,0,0,1-13.443-.022Z" transform="translate(-19.084 -2.184)"/><path d="M879.819,531.56q.082,1.126.166,2.251l.025-.09c-1.923.721-2.2-.392-2-1.871.261-1.959-.791-4.137.949-5.854C880.09,527.725,878.786,529.825,879.819,531.56Z" transform="translate(-20.485 -3.384)"/><path d="M867.037,483.861q3.318,0,6.636.009C871.458,486.679,869.248,485.026,867.037,483.861Z" transform="translate(-20.035 -1.643)"/><path d="M860.066,521.691q-.055-3.844-.112-7.689c2.013,2.337.56,5.126,1,7.669C860.66,521.669,860.363,521.677,860.066,521.691Z" transform="translate(-19.743 -2.889)"/><path d="M851.99,504.045l5.752-.022c-1.767,1.527-3.8.688-5.752.656C852,504.466,852,504.256,851.99,504.045Z" transform="translate(-19.413 -2.476)"/><path d="M860.211,511.6V507.71C861.543,509.213,860.616,510.517,860.211,511.6Z" transform="translate(-19.753 -2.629)"/><path d="M879.86,531.561c-1.659-1.643-.524-3.717-.863-5.561C880.661,527.643,879.69,529.692,879.86,531.561Z" transform="translate(-20.526 -3.384)"/><path d="M561.917,484.892l7.594.036,8.649.038c-4.521,2.109-9.305.506-13.946.959-1.726.17-3.483.025-5.227.023q-.48-.3-.314-.593c.106-.192.213-.293.32-.293Z" transform="translate(-7.295 -1.686)"/><path d="M558.431,485.044c0,.3-.007.592-.007.887-4.46-.484-9.069,1.089-13.415-.973a18.02,18.02,0,0,1,8.636-.01Z" transform="translate(-6.732 -1.667)"/><path d="M556.988,492.689q.015-.326,0-.651l7.676-.068C562.272,493.992,559.546,492.436,556.988,492.689Z" transform="translate(-7.227 -1.978)"/><path d="M553.645,484.93l-8.636.009c2.759-1.7,5.742-.659,8.637-.708A5.671,5.671,0,0,0,553.645,484.93Z" transform="translate(-6.732 -1.648)"/><path d="M591.635,485.867l-4.625.068A3.272,3.272,0,0,1,591.635,485.867Z" transform="translate(-8.467 -1.688)"/><path d="M638,488q0,2.4.005,4.789A3.119,3.119,0,0,1,638,488Z" transform="translate(-10.527 -1.814)"/><path d="M554.791,533.987l-4.858.007C551.549,532.556,553.168,532.478,554.791,533.987Z" transform="translate(-6.935 -3.669)"/><path d="M676.816,501.76q.07-2.378.142-4.757C678.367,498.63,678.541,500.224,676.816,501.76Z" transform="translate(-12.177 -2.186)"/><path d="M435,504.007l21.091-.042a46.727,46.727,0,0,1-21.091.042Z" transform="translate(-2.188 -2.474)"/></g></svg>