<svg xmlns="http://www.w3.org/2000/svg" width="28.469" height="23.135" viewBox="0 0 28.469 23.135"><path d="M28.41,8.355a11.684,11.684,0,0,1-3.357.921,5.855,5.855,0,0,0,2.569-3.23,11.728,11.728,0,0,1-3.71,1.416,5.843,5.843,0,0,0-9.951,5.327,16.584,16.584,0,0,1-12.039-6.1,5.853,5.853,0,0,0,1.808,7.8,5.836,5.836,0,0,1-2.647-.732v.073a5.849,5.849,0,0,0,4.684,5.729,5.846,5.846,0,0,1-1.538.2,5.626,5.626,0,0,1-1.1-.107,5.854,5.854,0,0,0,5.456,4.058,11.708,11.708,0,0,1-7.253,2.5,11.49,11.49,0,0,1-1.391-.082,16.5,16.5,0,0,0,8.953,2.625c10.743,0,16.618-8.9,16.618-16.616,0-.253-.007-.508-.016-.757A11.873,11.873,0,0,0,28.41,8.355Z" transform="translate(0.059 -5.617)"/></svg>